<?xml version="1.0" encoding="UTF-8"?>
<svg width="35" height="35" viewBox="0 0 35 35" fill="none" xmlns="http://www.w3.org/2000/svg">
  <path d="M17.5 4.375C10.3147 4.375 4.375 10.3147 4.375 17.5C4.375 24.6853 10.3147 30.625 17.5 30.625C24.6853 30.625 30.625 24.6853 30.625 17.5C30.625 10.3147 24.6853 4.375 17.5 4.375Z" stroke="#b3946e" stroke-width="1.2"/>
  <path d="M17.5 8.75L18.378 11.4795H21.2725L18.9473 13.1455L19.8252 15.875L17.5 14.209L15.1748 15.875L16.0527 13.1455L13.7275 11.4795H16.622L17.5 8.75Z" fill="#b3946e"/>
  <path d="M17.5 19.25L18.378 21.9795H21.2725L18.9473 23.6455L19.8252 26.375L17.5 24.709L15.1748 26.375L16.0527 23.6455L13.7275 21.9795H16.622L17.5 19.25Z" fill="#b3946e"/>
</svg>